# xmcd
# 
# Track frame offsets:
#     150
#     12641
#     26572
#     43359
#     59618
#     75637
#     92256
# 
# Disc length: 1455
# 
# Revision: 1
# Processed by: cddbd v1.5.2PL0 Copyright (c) Steve Scherf et al.
# Submitted via: BonkEnc v1.0.8
# 
DISCID=5405ad07
DTITLE=まったりモード - まったりモード
DYEAR=2010
DGENRE=Blues
TTITLE0=know the blues(Album mix)
TTITLE1=日常が過ぎていく
TTITLE2=Boring days
TTITLE3=know the blues
TTITLE4=ヒュルリ
TTITLE5=It's all rigth
TTITLE6=二人でいつも
EXTD=
EXTT0=
EXTT1=
EXTT2=
EXTT3=
EXTT4=
EXTT5=
EXTT6=
PLAYORDER=
